<?xml version="1.0" encoding="UTF-8"?>
<svg width="1920px" height="1080px" viewBox="0 0 1920 1080" version="1.1" xmlns="http://www.w3.org/2000/svg" xmlns:xlink="http://www.w3.org/1999/xlink">
    <!-- Generator: Sketch 56.3 (81716) - https://sketch.com -->
    <title>背景@1x</title>
    <desc>Created with Sketch.</desc>
    <defs>
        <linearGradient x1="-7.48950375%" y1="26.6915574%" x2="96.1511565%" y2="72.5944129%" id="linearGradient-1">
            <stop stop-color="#1DE3FF" offset="0%"></stop>
            <stop stop-color="#3AB5FF" offset="100%"></stop>
        </linearGradient>
        <rect id="path-2" x="0" y="0" width="1920" height="1080"></rect>
        <linearGradient x1="50%" y1="0%" x2="50%" y2="100%" id="linearGradient-4">
            <stop stop-color="#FFE074" offset="0%"></stop>
            <stop stop-color="#FFC300" offset="100%"></stop>
        </linearGradient>
        <linearGradient x1="50%" y1="0%" x2="50%" y2="100%" id="linearGradient-5">
            <stop stop-color="#FFF5BE" offset="0%"></stop>
            <stop stop-color="#FFD637" offset="100%"></stop>
        </linearGradient>
        <linearGradient x1="50%" y1="100%" x2="50%" y2="0%" id="linearGradient-6">
            <stop stop-color="#E4F5FF" offset="0%"></stop>
            <stop stop-color="#FFFFFF" offset="100%"></stop>
        </linearGradient>
        <filter x="-171.4%" y="-171.4%" width="442.9%" height="442.9%" filterUnits="objectBoundingBox" id="filter-7">
            <feGaussianBlur stdDeviation="8.57142857" in="SourceGraphic"></feGaussianBlur>
        </filter>
        <filter x="-171.4%" y="-171.4%" width="442.9%" height="442.9%" filterUnits="objectBoundingBox" id="filter-8">
            <feGaussianBlur stdDeviation="8.57142857" in="SourceGraphic"></feGaussianBlur>
        </filter>
        <linearGradient x1="56.4111863%" y1="50%" x2="100%" y2="6.71497636%" id="linearGradient-9">
            <stop stop-color="#FFFFFF" stop-opacity="0" offset="0%"></stop>
            <stop stop-color="#FFFFFF" stop-opacity="0.4" offset="100%"></stop>
        </linearGradient>
    </defs>
    <g id="Page-1" stroke="none" stroke-width="1" fill="none" fill-rule="evenodd">
        <g id="背景">
            <mask id="mask-3" fill="white">
                <use xlink:href="#path-2"></use>
            </mask>
            <use id="Mask" fill="url(#linearGradient-1)" xlink:href="#path-2"></use>
            <g id="太阳" mask="url(#mask-3)">
                <g transform="translate(1704.000000, 42.000000)">
                    <g id="晴朗" stroke="none" stroke-width="1" fill="none" fill-rule="evenodd">
                        <path d="M64.1444702,134.199756 C57.3417314,134.199756 51.9749651,125.515474 45.8394458,123.511408 C39.4718501,121.434732 30.058252,125.239552 24.7495048,121.376643 C19.3972433,117.470168 20.122482,107.30462 16.2206978,101.945924 C12.362428,96.6598394 2.45566755,94.2201079 0.381484903,87.8448571 C-1.62017387,81.6874394 4.90697431,73.9180563 4.90697431,67.1071391 C4.90697431,60.296222 -1.6056691,52.5268388 0.381484903,46.3694212 C2.45566755,39.9941703 12.3479232,37.5544388 16.206193,32.2538316 C20.1079772,26.8951356 19.3827385,16.7295876 24.735,12.8231127 C30.0292424,8.96020447 39.4573453,12.7650239 45.824941,10.6883476 C51.9749651,8.68428245 57.3272266,0 64.1444702,0 C70.9617139,0 76.3139754,8.68428245 82.4494947,10.6883476 C88.8170904,12.7650239 98.2306885,8.96020447 103.539436,12.8231127 C108.891697,16.7295876 108.166459,26.8951356 112.068243,32.2538316 C115.926512,37.5544388 125.833273,39.9941703 127.892951,46.3694212 C129.89461,52.5268388 123.367461,60.296222 123.367461,67.1071391 C123.367461,73.9180563 129.880105,81.6874394 127.892951,87.8448571 C125.818768,94.2201079 115.926512,96.6598394 112.068243,101.960447 C108.166459,107.319143 108.891697,117.484691 103.539436,121.391166 C98.2451933,125.254074 88.8170904,121.449254 82.4494947,123.525931 C76.3139754,125.515474 70.9472091,134.199756 64.1444702,134.199756 Z" id="路径" fill="url(#linearGradient-4)" fill-rule="nonzero"></path>
                        <path d="M20.7579429,66.1701586 C20.7579429,81.4285631 28.8827779,95.5279103 42.0719019,103.157113 C55.2610258,110.786315 71.5106967,110.786315 84.6998206,103.157113 C97.8889445,95.5279103 106.01378,81.4285631 106.01378,66.1701586 C106.01378,50.9117541 97.8889445,36.8124069 84.6998206,29.1832046 C71.5106967,21.5540023 55.2610258,21.5540023 42.0719019,29.1832046 C28.8827779,36.8124069 20.7579429,50.9117541 20.7579429,66.1701586 Z" id="路径" fill="url(#linearGradient-5)" fill-rule="nonzero"></path>
                    </g>
                    <path d="M54,79 C54,82.8659932 58.4771525,86 64,86 L64,86 C69.5228475,86 74,82.8659932 74,79" id="路径-copy" stroke="#390F0F" stroke-width="2.85714286" fill="none" stroke-linecap="round" stroke-linejoin="round"></path>
                    <circle id="椭圆形-copy" stroke="none" fill="#390F0F" fill-rule="evenodd" cx="43" cy="59" r="9"></circle>
                    <circle id="椭圆形复制-28-copy" stroke="none" fill="#390F0F" fill-rule="evenodd" cx="84" cy="59" r="9"></circle>
                </g>
            </g>
            <g id="分组" opacity="0.845982143" mask="url(#mask-3)">
                <g transform="translate(486.000000, 17.000000)">
                    <path d="M14.5209641,23.1055843 C14.3091521,21.952043 14.1984733,20.7630598 14.1984733,19.5481928 C14.1984733,8.75202402 22.9391737,0 33.721374,0 C42.3261793,0 49.630765,5.5741133 52.230078,13.3128754 C53.9431905,12.5241539 55.8496887,12.0843373 57.8587786,12.0843373 C64.3341657,12.0843373 69.7438278,16.6531596 71.0478869,22.746988 L74.873494,22.746988 C84.8844868,22.746988 93,30.8625011 93,40.873494 C93,50.8844868 84.8844868,59 74.873494,59 L18.126506,59 C8.11551318,59 1.22599303e-15,50.8844868 0,40.873494 C-1.07480277e-15,32.0970633 6.23731297,24.7774352 14.5209641,23.1055843 Z" id="形状结合" stroke="none" fill="url(#linearGradient-6)" fill-rule="evenodd"></path>
                    <path d="M37,40 C37,42.209139 39.4624339,44 42.5,44 L42.5,44 C45.5375661,44 48,42.209139 48,40" id="路径" stroke="#390F0F" stroke-width="2.85714286" fill="none" stroke-linecap="round" stroke-linejoin="round"></path>
                    <circle id="椭圆形" stroke="none" fill="#390F0F" fill-rule="evenodd" cx="31" cy="29" r="5"></circle>
                    <circle id="椭圆形复制-31" stroke="none" fill="#FFFFFF" fill-rule="evenodd" cx="31.5" cy="27.5" r="1.5"></circle>
                    <circle id="椭圆形复制-28" stroke="none" fill="#390F0F" fill-rule="evenodd" cx="54" cy="29" r="5"></circle>
                    <circle id="椭圆形复制-32" stroke="none" fill="#FFFFFF" fill-rule="evenodd" cx="53.5" cy="27.5" r="1.5"></circle>
                    <circle id="椭圆形" stroke="none" fill="#FFBEBE" fill-rule="evenodd" filter="url(#filter-7)" cx="69.5" cy="39.5" r="7.5"></circle>
                    <circle id="椭圆形复制" stroke="none" fill="#FFBEBE" fill-rule="evenodd" filter="url(#filter-8)" cx="18.5" cy="39.5" r="7.5"></circle>
                </g>
            </g>
            <polygon id="路径" fill="url(#linearGradient-9)" mask="url(#mask-3)" points="1941.11484 -69 1207 336.333168 1616.15482 634.524961 2005.54278 -47.1353165"></polygon>
            <g id="分组-9" opacity="0.658668155" mask="url(#mask-3)">
                <g transform="translate(-231.000000, 882.000000)">
                    <ellipse id="椭圆形" fill="#FF6B6B" cx="216.5" cy="213" rx="216.5" ry="213"></ellipse>
                    <ellipse id="椭圆形-copy-5" fill="#FF9C6B" cx="236" cy="205.5" rx="167" ry="164.5"></ellipse>
                    <ellipse id="椭圆形-copy-6" fill="#FFC46B" cx="216.5" cy="228" rx="159.5" ry="157"></ellipse>
                    <ellipse id="椭圆形-copy-7" fill="#2CD2C4" cx="202.5" cy="233.5" rx="133.5" ry="131.5"></ellipse>
                </g>
            </g>
        </g>
    </g>
</svg>